<svg width="32" height="32" viewBox="0 0 32 32" fill="none" xmlns="http://www.w3.org/2000/svg">
<path d="M3.46045 9.46539L10.8776 2.0482C13.6086 -0.682735 18.0363 -0.682734 20.7672 2.04821L22.18 3.461L9.81804 15.823L3.46045 9.46539Z" fill="#F9AA40"/>
<path d="M9.81804 15.8229L12.9968 12.6441L3.46045 9.46533L9.81804 15.8229Z" fill="#F49250"/>
<path d="M28.5379 22.534L21.1208 29.9512C18.3898 32.6821 13.9621 32.6821 11.2312 29.9512L9.81836 28.5384L22.1804 16.1764L28.5379 22.534Z" fill="#9C73B0"/>
<path d="M8.05259 26.7721L2.0482 20.7677C-0.682737 18.0368 -0.682732 13.6091 2.04821 10.8781L3.461 9.46533L14.4102 20.4145L8.05259 26.7721Z" fill="#ED4C40"/>
<path d="M23.9463 5.22705L29.9507 11.2314C32.6817 13.9624 32.6817 18.3901 29.9507 21.121L28.5379 22.5338L17.5887 11.5846L23.9463 5.22705Z" fill="#51BB8D"/>
<path d="M22.1811 16.1764L19.0023 19.3552L28.5387 22.534L22.1811 16.1764Z" fill="#6E4698"/>
</svg>
